<?xml version="1.0" encoding="UTF-8"?>
<svg width="20px" height="15px" viewBox="0 0 20 15" version="1.1" xmlns="http://www.w3.org/2000/svg" xmlns:xlink="http://www.w3.org/1999/xlink">
    <!-- Generator: Sketch 54.1 (76490) - https://sketchapp.com -->
    <title>logo</title>
    <desc>Created with Sketch.</desc>
    <g id="页面1" stroke="none" stroke-width="1" fill="none" fill-rule="evenodd">
        <g id="营运明细-验证成功" transform="translate(-50.000000, -20.000000)" fill="#FFFFFF">
            <g id="nav">
                <path d="M66.7546338,22.8204034 L59.3832919,30.1917452 L58.6749165,32.3137503 L54,32.3137503 C51.790861,32.3137503 50,30.5228893 50,28.3137503 L50,24 C50,21.790861 51.790861,20 54,20 L62.9314067,20 C64.7299609,20 66.2512686,21.1870332 66.7546338,22.8204034 Z M52.3088282,22.3088282 C51.8837847,22.3088282 51.5392188,22.653394 51.5392188,23.0784376 C51.5392188,23.5034811 51.8837847,23.848047 52.3088282,23.848047 L61.5441409,23.848047 C61.9691844,23.848047 62.3137503,23.5034811 62.3137503,23.0784376 C62.3137503,22.653394 61.9691844,22.3088282 61.5441409,22.3088282 L52.3088282,22.3088282 Z M52.3088282,25.3872658 C51.8837847,25.3872658 51.5392188,25.7318316 51.5392188,26.1568752 C51.5392188,26.5819187 51.8837847,26.9264845 52.3088282,26.9264845 L59.2353127,26.9264845 C59.6603563,26.9264845 60.0049221,26.5819187 60.0049221,26.1568752 C60.0049221,25.7318316 59.6603563,25.3872658 59.2353127,25.3872658 L52.3088282,25.3872658 Z M52.3088282,28.4657033 C51.8837847,28.4657033 51.5392188,28.8102692 51.5392188,29.2353127 C51.5392188,29.6603563 51.8837847,30.0049221 52.3088282,30.0049221 L56.9264845,30.0049221 C57.3515281,30.0049221 57.6960939,29.6603563 57.6960939,29.2353127 C57.6960939,28.8102692 57.3515281,28.4657033 56.9264845,28.4657033 L52.3088282,28.4657033 Z M62.8559049,33.1743989 L59.5145311,34.2881901 L60.6283224,30.9468163 L67.31107,24.2640687 C67.9261999,23.6489388 68.9235226,23.6489388 69.5386526,24.2640687 C70.1537825,24.8791986 70.1537825,25.8765213 69.5386526,26.4916513 L62.8559049,33.1743989 Z" id="logo"></path>
            </g>
        </g>
    </g>
</svg>